
<svg width="498" height="392.5" xmlns="http://www.w3.org/2000/svg" style="font-family:Calibri,sans-serif;">
  <rect
    x="1"
    y="1"
    width="496"
    height="390.5"
    fill="#f8f6f3"
    stroke="#dcd7ce"
    stroke-width="2"
    rx="10"
    ry="10"
  />
  
    <g transform="translate(20, 20) scale(0.9248571428571428)">
      <g transform="scale(0.075)" style="color:#7a7266"><path fill="currentColor" d="M128 0C57.308 0 0 57.308 0 128c0 70.693 57.308 128 128 128 70.693 0 128-57.307 128-128C256 57.308 198.693 0 128 0m0 33.805c51.939 0 94.195 42.256 94.195 94.195 0 51.94-42.256 94.195-94.195 94.195-51.939 0-94.195-42.255-94.195-94.195 0-51.939 42.256-94.195 94.195-94.195m-12.5 121.838h-.113a6.342 6.342 0 0 1-4.953-2.528L81.56 114.732a6.34 6.34 0 0 1 10.131-7.62l23.993 31.893 6.863-8.478a6.34 6.34 0 0 1 4.926-2.35h.008a6.331 6.331 0 0 1 4.93 2.364l6.59 8.187 37.692-48.594a6.338 6.338 0 0 1 10.015 7.77L144.1 152.837a6.338 6.338 0 0 1-4.95 2.453h-.057a6.335 6.335 0 0 1-4.938-2.364l-6.697-8.319-7.033 8.686a6.336 6.336 0 0 1-4.926 2.35"/></g>
      <text x="30" y="15" fill="#2d2a26" font-size="16" font-family="Calibri">
        bar_vertical WakaTime Stats
      </text>
    </g>
  <g transform="translate(0, 56) scale(1)">
      <text font-family="Calibri" x="245" y="22.5" font-size="12" text-anchor="middle" fill="#5f574f" font-weight="bold">I mostly code in Python</text>
      <text font-family="Calibri" x="67" y="55.5" font-size="10" text-anchor="end" fill="#5f574f">Python</text>
<rect x="75" y="46.5" width="340" height="12" fill="#9c8f80" rx="2" ry="2" />
<text font-family="Calibri" x="421" y="55.5" font-size="9" fill="#5f574f">90:10    |    30.2%</text>
<text font-family="Calibri" x="67" y="79.5" font-size="10" text-anchor="end" fill="#5f574f">TypeScript</text>
<rect x="75" y="70.5" width="286.254396665381" height="12" fill="#9c8f80" rx="2" ry="2" />
<text font-family="Calibri" x="367.254396665381" y="79.5" font-size="9" fill="#5f574f">75:54    |    25.5%</text>
<text font-family="Calibri" x="67" y="103.5" font-size="10" text-anchor="end" fill="#5f574f">JavaScript</text>
<rect x="75" y="94.5" width="194.27313626104254" height="12" fill="#9c8f80" rx="2" ry="2" />
<text font-family="Calibri" x="275.2731362610425" y="103.5" font-size="9" fill="#5f574f">51:31    |    17.3%</text>
<text font-family="Calibri" x="67" y="127.5" font-size="10" text-anchor="end" fill="#5f574f">CSS</text>
<rect x="75" y="118.5" width="159.14081038984278" height="12" fill="#9c8f80" rx="2" ry="2" />
<text font-family="Calibri" x="240.14081038984278" y="127.5" font-size="9" fill="#5f574f">42:12    |    14.2%</text>
<text font-family="Calibri" x="67" y="151.5" font-size="10" text-anchor="end" fill="#5f574f">HTML</text>
<rect x="75" y="142.5" width="97.75384451882101" height="12" fill="#9c8f80" rx="2" ry="2" />
<text font-family="Calibri" x="178.753844518821" y="151.5" font-size="9" fill="#5f574f">25:55    |    8.7%</text>
<text font-family="Calibri" x="67" y="175.5" font-size="10" text-anchor="end" fill="#5f574f">JSON</text>
<rect x="75" y="166.5" width="21.06322708120705" height="12" fill="#9c8f80" rx="2" ry="2" />
<text font-family="Calibri" x="102.06322708120705" y="175.5" font-size="9" fill="#5f574f">05:35    |    1.9%</text>
<text font-family="Calibri" x="67" y="199.5" font-size="10" text-anchor="end" fill="#5f574f">Markdown</text>
<rect x="75" y="190.5" width="13.840092874402863" height="12" fill="#9c8f80" rx="2" ry="2" />
<text font-family="Calibri" x="94.84009287440287" y="199.5" font-size="9" fill="#5f574f">03:40    |    1.2%</text>
<text font-family="Calibri" x="67" y="223.5" font-size="10" text-anchor="end" fill="#5f574f">Bash</text>
<rect x="75" y="214.5" width="6.455034900267672" height="12" fill="#9c8f80" rx="2" ry="2" />
<text font-family="Calibri" x="87.45503490026768" y="223.5" font-size="9" fill="#5f574f">01:42    |    0.6%</text>
<text font-family="Calibri" x="67" y="247.5" font-size="10" text-anchor="end" fill="#5f574f">Git Config</text>
<rect x="75" y="238.5" width="3.0623125285889015" height="12" fill="#9c8f80" rx="2" ry="2" />
<text font-family="Calibri" x="84.0623125285889" y="247.5" font-size="9" fill="#5f574f">48m    |    0.3%</text>
<text font-family="Calibri" x="67" y="271.5" font-size="10" text-anchor="end" fill="#5f574f">Text</text>
<rect x="75" y="262.5" width="2.724481094503717" height="12" fill="#9c8f80" rx="2" ry="2" />
<text font-family="Calibri" x="83.72448109450372" y="271.5" font-size="9" fill="#5f574f">43m    |    0.2%</text>
      <text font-family="Calibri" x="245" y="306.5" font-size="12" text-anchor="middle" fill="#5f574f"><tspan font-weight="bold">Total:</tspan> 300 hrs 41 mins</text>
    </g>
</svg>