
<svg width="363" height="242.5" xmlns="http://www.w3.org/2000/svg" style="font-family:Calibri,sans-serif;">
  <rect
    x="1"
    y="1"
    width="361"
    height="240.5"
    fill="#f8f6f3"
    stroke="#dcd7ce"
    stroke-width="2"
    rx="10"
    ry="10"
  />
  
    <g transform="translate(20, 20) scale(0.6741428571428572)">
      <g transform="scale(0.075)" style="color:#7a7266"><path fill="currentColor" d="M128 0C57.308 0 0 57.308 0 128c0 70.693 57.308 128 128 128 70.693 0 128-57.307 128-128C256 57.308 198.693 0 128 0m0 33.805c51.939 0 94.195 42.256 94.195 94.195 0 51.94-42.256 94.195-94.195 94.195-51.939 0-94.195-42.255-94.195-94.195 0-51.939 42.256-94.195 94.195-94.195m-12.5 121.838h-.113a6.342 6.342 0 0 1-4.953-2.528L81.56 114.732a6.34 6.34 0 0 1 10.131-7.62l23.993 31.893 6.863-8.478a6.34 6.34 0 0 1 4.926-2.35h.008a6.331 6.331 0 0 1 4.93 2.364l6.59 8.187 37.692-48.594a6.338 6.338 0 0 1 10.015 7.77L144.1 152.837a6.338 6.338 0 0 1-4.95 2.453h-.057a6.335 6.335 0 0 1-4.938-2.364l-6.697-8.319-7.033 8.686a6.336 6.336 0 0 1-4.926 2.35"/></g>
      <text x="30" y="15" fill="#2d2a26" font-size="16" font-family="Calibri">
        line WakaTime Stats
      </text>
    </g>
  <g transform="translate(0, 56) scale(1)">
      <text x="177.5" y="22.5" font-size="12" text-anchor="middle" fill="#5f574f" font-weight="bold">This week, my most productive day was Thursday</text>
      <path d="M 45,86.78754630798261 C 52.5,82.26281400115693 75,66.35374351835893 90,59.639152467028495 C 105,52.92456141569806 120,46.5 135,46.5 C 150,48.41401113342533 165,67.9190256039857 180,71.12321926758048 C 195,74.32741293117526 210,65.41933717953803 225,65.7251619815687 C 240,66.03098678359937 255,67.43137477812104 270,72.9581680797645 C 285,78.48496138140797 307.5,94.56462950615196 315,98.88592179142945" fill="none" stroke="#9c8f80" stroke-width="2" />
<circle cx="45" cy="86.78754630798261" r="2.5" fill="#9c8f80" />
<circle cx="90" cy="59.639152467028495" r="2.5" fill="#9c8f80" />
<circle cx="135" cy="46.5" r="2.5" fill="#9c8f80" />
<circle cx="180" cy="71.12321926758048" r="2.5" fill="#9c8f80" />
<circle cx="225" cy="65.7251619815687" r="2.5" fill="#9c8f80" />
<circle cx="270" cy="72.9581680797645" r="2.5" fill="#9c8f80" />
<circle cx="315" cy="98.88592179142945" r="2.5" fill="#9c8f80" />
<text x="45" y="80.78754630798261" font-size="9" text-anchor="middle" fill="#5f574f" fill-opacity="0.8">01:39</text>
<text x="45" y="118.5" font-weight="bold" font-size="10" text-anchor="middle" fill="#5f574f" fill-opacity="0.7">Tue</text>
<text x="45" y="130.5" font-size="9" text-anchor="middle" fill="#5f574f" fill-opacity="0.6">8.1%</text>
<text x="90" y="53.639152467028495" font-size="9" text-anchor="middle" fill="#5f574f" fill-opacity="0.8">03:56</text>
<text x="90" y="118.5" font-weight="bold" font-size="10" text-anchor="middle" fill="#5f574f" fill-opacity="0.7">Wed</text>
<text x="90" y="130.5" font-size="9" text-anchor="middle" fill="#5f574f" fill-opacity="0.6">19.2%</text>
<text x="135" y="40.5" font-size="9" text-anchor="middle" fill="#5f574f" fill-opacity="0.8">05:02</text>
<text x="135" y="118.5" font-weight="bold" font-size="10" text-anchor="middle" fill="#5f574f" fill-opacity="0.7">Thu</text>
<text x="135" y="130.5" font-size="9" text-anchor="middle" fill="#5f574f" fill-opacity="0.6">24.6%</text>
<text x="180" y="65.12321926758048" font-size="9" text-anchor="middle" fill="#5f574f" fill-opacity="0.8">02:58</text>
<text x="180" y="118.5" font-weight="bold" font-size="10" text-anchor="middle" fill="#5f574f" fill-opacity="0.7">Fri</text>
<text x="180" y="130.5" font-size="9" text-anchor="middle" fill="#5f574f" fill-opacity="0.6">14.5%</text>
<text x="225" y="59.725161981568704" font-size="9" text-anchor="middle" fill="#5f574f" fill-opacity="0.8">03:25</text>
<text x="225" y="118.5" font-weight="bold" font-size="10" text-anchor="middle" fill="#5f574f" fill-opacity="0.7">Sat</text>
<text x="225" y="130.5" font-size="9" text-anchor="middle" fill="#5f574f" fill-opacity="0.6">16.7%</text>
<text x="270" y="66.9581680797645" font-size="9" text-anchor="middle" fill="#5f574f" fill-opacity="0.8">02:49</text>
<text x="270" y="118.5" font-weight="bold" font-size="10" text-anchor="middle" fill="#5f574f" fill-opacity="0.7">Sun</text>
<text x="270" y="130.5" font-size="9" text-anchor="middle" fill="#5f574f" fill-opacity="0.6">13.8%</text>
<text x="315" y="92.88592179142945" font-size="9" text-anchor="middle" fill="#5f574f" fill-opacity="0.8">38m</text>
<text x="315" y="118.5" font-weight="bold" font-size="10" text-anchor="middle" fill="#5f574f" fill-opacity="0.7">Mon</text>
<text x="315" y="130.5" font-size="9" text-anchor="middle" fill="#5f574f" fill-opacity="0.6">3.1%</text>
      <text x="177.5" y="156.5" font-size="12" text-anchor="middle" fill="#5f574f"><tspan font-weight="bold">Total:</tspan> 20 hrs 30 mins</text>
    </g>
</svg>