
<svg width="608" height="392.5" xmlns="http://www.w3.org/2000/svg" style="font-family:Calibri,sans-serif;">
  <rect
    x="1"
    y="1"
    width="606"
    height="390.5"
    fill="#f8f6f3"
    stroke="#dcd7ce"
    stroke-width="2"
    rx="10"
    ry="10"
  />
  
    <g transform="translate(20, 20) scale(1.1291428571428572)">
      <g transform="scale(0.075)" style="color:#7a7266"><path fill="currentColor" d="M128 0C57.308 0 0 57.308 0 128c0 70.693 57.308 128 128 128 70.693 0 128-57.307 128-128C256 57.308 198.693 0 128 0m0 33.805c51.939 0 94.195 42.256 94.195 94.195 0 51.94-42.256 94.195-94.195 94.195-51.939 0-94.195-42.255-94.195-94.195 0-51.939 42.256-94.195 94.195-94.195m-12.5 121.838h-.113a6.342 6.342 0 0 1-4.953-2.528L81.56 114.732a6.34 6.34 0 0 1 10.131-7.62l23.993 31.893 6.863-8.478a6.34 6.34 0 0 1 4.926-2.35h.008a6.331 6.331 0 0 1 4.93 2.364l6.59 8.187 37.692-48.594a6.338 6.338 0 0 1 10.015 7.77L144.1 152.837a6.338 6.338 0 0 1-4.95 2.453h-.057a6.335 6.335 0 0 1-4.938-2.364l-6.697-8.319-7.033 8.686a6.336 6.336 0 0 1-4.926 2.35"/></g>
      <text x="30" y="15" fill="#2d2a26" font-size="16" font-family="Calibri">
        all_projs_bar_vertical WakaTime Stats
      </text>
    </g>
  <g transform="translate(0, 56) scale(1)">
      <text font-family="Calibri" x="300" y="22.5" font-size="12" text-anchor="middle" fill="#5f574f" font-weight="bold">I mostly code for nutriverse_v2</text>
      <text font-family="Calibri" x="122" y="55.5" font-size="10" text-anchor="end" fill="#5f574f">nutriverse_v2</text>
<rect x="130" y="46.5" width="400" height="12" fill="#9c8f80" rx="2" ry="2" />
<text font-family="Calibri" x="536" y="55.5" font-size="9" fill="#5f574f">87:52    |    30.4%</text>
<text font-family="Calibri" x="122" y="79.5" font-size="10" text-anchor="end" fill="#5f574f">Portfolio</text>
<rect x="130" y="70.5" width="310.3235731017204" height="12" fill="#9c8f80" rx="2" ry="2" />
<text font-family="Calibri" x="446.3235731017204" y="79.5" font-size="9" fill="#5f574f">68:10    |    23.6%</text>
<text font-family="Calibri" x="122" y="103.5" font-size="10" text-anchor="end" fill="#5f574f">wakatimeReadmeStats</text>
<rect x="130" y="94.5" width="230.99558521569796" height="12" fill="#9c8f80" rx="2" ry="2" />
<text font-family="Calibri" x="366.99558521569793" y="103.5" font-size="9" fill="#5f574f">50:44    |    17.6%</text>
<text font-family="Calibri" x="122" y="127.5" font-size="10" text-anchor="end" fill="#5f574f">Unknown Project</text>
<rect x="130" y="118.5" width="110.1639028471838" height="12" fill="#9c8f80" rx="2" ry="2" />
<text font-family="Calibri" x="246.1639028471838" y="127.5" font-size="9" fill="#5f574f">24:11    |    8.4%</text>
<text font-family="Calibri" x="122" y="151.5" font-size="10" text-anchor="end" fill="#5f574f">finalProject</text>
<rect x="130" y="142.5" width="70.68508530146865" height="12" fill="#9c8f80" rx="2" ry="2" />
<text font-family="Calibri" x="206.68508530146863" y="151.5" font-size="9" fill="#5f574f">15:31    |    5.4%</text>
<text font-family="Calibri" x="122" y="175.5" font-size="10" text-anchor="end" fill="#5f574f">MLPAndWordVectors</text>
<rect x="130" y="166.5" width="58.77975200846009" height="12" fill="#9c8f80" rx="2" ry="2" />
<text font-family="Calibri" x="194.7797520084601" y="175.5" font-size="9" fill="#5f574f">12:54    |    4.5%</text>
<text font-family="Calibri" x="122" y="199.5" font-size="10" text-anchor="end" fill="#5f574f">machineTranslation</text>
<rect x="130" y="190.5" width="52.63568766949631" height="12" fill="#9c8f80" rx="2" ry="2" />
<text font-family="Calibri" x="188.63568766949632" y="199.5" font-size="9" fill="#5f574f">11:33    |    4.0%</text>
<text font-family="Calibri" x="122" y="223.5" font-size="10" text-anchor="end" fill="#5f574f">machineLearningProj…</text>
<rect x="130" y="214.5" width="35.55916450289866" height="12" fill="#9c8f80" rx="2" ry="2" />
<text font-family="Calibri" x="171.55916450289865" y="223.5" font-size="9" fill="#5f574f">07:48    |    2.7%</text>
<text font-family="Calibri" x="122" y="247.5" font-size="10" text-anchor="end" fill="#5f574f">dadsBdayWebApp</text>
<rect x="130" y="238.5" width="23.55958257938831" height="12" fill="#9c8f80" rx="2" ry="2" />
<text font-family="Calibri" x="159.55958257938832" y="247.5" font-size="9" fill="#5f574f">05:10    |    1.8%</text>
<text font-family="Calibri" x="122" y="271.5" font-size="10" text-anchor="end" fill="#5f574f">textClassifier</text>
<rect x="130" y="262.5" width="22.42501540005034" height="12" fill="#9c8f80" rx="2" ry="2" />
<text font-family="Calibri" x="158.42501540005034" y="271.5" font-size="9" fill="#5f574f">04:55    |    1.7%</text>
      <text font-family="Calibri" x="300" y="306.5" font-size="12" text-anchor="middle" fill="#5f574f"><tspan font-weight="bold">Total:</tspan> 300 hrs 41 mins</text>
    </g>
</svg>