
<svg width="360" height="231" xmlns="http://www.w3.org/2000/svg" style="font-family:Calibri,sans-serif;">
  <rect
    x="1"
    y="1"
    width="358"
    height="229"
    fill="#f8f6f3"
    stroke="#dcd7ce"
    stroke-width="2"
    rx="10"
    ry="10"
  />
  
    <g transform="translate(20, 20) scale(0.6685714285714285)">
      <g transform="scale(0.075)" style="color:#7a7266"><path fill="currentColor" d="M128 0C57.308 0 0 57.308 0 128c0 70.693 57.308 128 128 128 70.693 0 128-57.307 128-128C256 57.308 198.693 0 128 0m0 33.805c51.939 0 94.195 42.256 94.195 94.195 0 51.94-42.256 94.195-94.195 94.195-51.939 0-94.195-42.255-94.195-94.195 0-51.939 42.256-94.195 94.195-94.195m-12.5 121.838h-.113a6.342 6.342 0 0 1-4.953-2.528L81.56 114.732a6.34 6.34 0 0 1 10.131-7.62l23.993 31.893 6.863-8.478a6.34 6.34 0 0 1 4.926-2.35h.008a6.331 6.331 0 0 1 4.93 2.364l6.59 8.187 37.692-48.594a6.338 6.338 0 0 1 10.015 7.77L144.1 152.837a6.338 6.338 0 0 1-4.95 2.453h-.057a6.335 6.335 0 0 1-4.938-2.364l-6.697-8.319-7.033 8.686a6.336 6.336 0 0 1-4.926 2.35"/></g>
      <text x="30" y="15" fill="#2d2a26" font-size="16" font-family="Calibri">
        rank WakaTime Stats
      </text>
    </g>
  <g transform="translate(0, 56) scale(1)">
      <text x="160" y="25" font-size="16" text-anchor="middle" fill="#5f574f" font-family="Calibri" font-weight="bold">Weekly Ranking</text>
      <g transform="translate(0, 35)"><g transform="translate(60,8) scale(0.6)" ><path d="M14.4012 3.17499C13.8719 2.11134 13.0447 1.32715 11.9987 1.32715C10.9539 1.32715 10.1241 2.11 9.58985 3.17284L7.82915 6.69424L7.82642 6.69975C7.77359 6.8076 7.64731 6.9611 7.45702 7.10219C7.26737 7.2428 7.0834 7.31975 6.96547 7.34005L6.96441 7.34023L3.77705 7.86979C2.62694 8.06147 1.66106 8.62118 1.34801 9.6015C1.03519 10.5811 1.49663 11.597 2.31964 12.42L4.79964 14.9C4.89724 14.9976 5.0066 15.1815 5.07518 15.4211C5.14334 15.6592 5.1491 15.8751 5.11856 16.0137L5.11813 16.0156L4.40928 19.0806C4.11373 20.3578 4.21624 21.6259 5.12539 22.2893C6.03398 22.9522 7.27361 22.6647 8.40273 21.9946L11.3871 20.2279L11.389 20.2268C11.5232 20.1494 11.7443 20.0896 12.0037 20.0896C12.265 20.0896 12.4816 20.1502 12.6076 20.2249L15.5979 21.995C16.7284 22.6628 17.9695 22.9555 18.878 22.2932C19.7878 21.6299 19.8854 20.3595 19.5908 19.0812L18.8818 16.0156L18.8814 16.0137C18.8508 15.8751 18.8566 15.6592 18.9248 15.4211C18.9933 15.1815 19.1027 14.9976 19.2003 14.9L21.6785 12.4218L21.6795 12.4208C22.5077 11.5978 22.9706 10.5811 22.6552 9.60014C22.3403 8.62044 21.3726 8.06141 20.2233 7.86985L17.0333 7.33985" fill="#9c8f80" /></g>
<g transform="translate(88,24) scale(0.6)" ><path d="M14.4012 3.17499C13.8719 2.11134 13.0447 1.32715 11.9987 1.32715C10.9539 1.32715 10.1241 2.11 9.58985 3.17284L7.82915 6.69424L7.82642 6.69975C7.77359 6.8076 7.64731 6.9611 7.45702 7.10219C7.26737 7.2428 7.0834 7.31975 6.96547 7.34005L6.96441 7.34023L3.77705 7.86979C2.62694 8.06147 1.66106 8.62118 1.34801 9.6015C1.03519 10.5811 1.49663 11.597 2.31964 12.42L4.79964 14.9C4.89724 14.9976 5.0066 15.1815 5.07518 15.4211C5.14334 15.6592 5.1491 15.8751 5.11856 16.0137L5.11813 16.0156L4.40928 19.0806C4.11373 20.3578 4.21624 21.6259 5.12539 22.2893C6.03398 22.9522 7.27361 22.6647 8.40273 21.9946L11.3871 20.2279L11.389 20.2268C11.5232 20.1494 11.7443 20.0896 12.0037 20.0896C12.265 20.0896 12.4816 20.1502 12.6076 20.2249L15.5979 21.995C16.7284 22.6628 17.9695 22.9555 18.878 22.2932C19.7878 21.6299 19.8854 20.3595 19.5908 19.0812L18.8818 16.0156L18.8814 16.0137C18.8508 15.8751 18.8566 15.6592 18.9248 15.4211C18.9933 15.1815 19.1027 14.9976 19.2003 14.9L21.6785 12.4218L21.6795 12.4208C22.5077 11.5978 22.9706 10.5811 22.6552 9.60014C22.3403 8.62044 21.3726 8.06141 20.2233 7.86985L17.0333 7.33985" fill="#9c8f80" /></g>
<g transform="translate(88,56) scale(0.6)" ><path d="M14.4012 3.17499C13.8719 2.11134 13.0447 1.32715 11.9987 1.32715C10.9539 1.32715 10.1241 2.11 9.58985 3.17284L7.82915 6.69424L7.82642 6.69975C7.77359 6.8076 7.64731 6.9611 7.45702 7.10219C7.26737 7.2428 7.0834 7.31975 6.96547 7.34005L6.96441 7.34023L3.77705 7.86979C2.62694 8.06147 1.66106 8.62118 1.34801 9.6015C1.03519 10.5811 1.49663 11.597 2.31964 12.42L4.79964 14.9C4.89724 14.9976 5.0066 15.1815 5.07518 15.4211C5.14334 15.6592 5.1491 15.8751 5.11856 16.0137L5.11813 16.0156L4.40928 19.0806C4.11373 20.3578 4.21624 21.6259 5.12539 22.2893C6.03398 22.9522 7.27361 22.6647 8.40273 21.9946L11.3871 20.2279L11.389 20.2268C11.5232 20.1494 11.7443 20.0896 12.0037 20.0896C12.265 20.0896 12.4816 20.1502 12.6076 20.2249L15.5979 21.995C16.7284 22.6628 17.9695 22.9555 18.878 22.2932C19.7878 21.6299 19.8854 20.3595 19.5908 19.0812L18.8818 16.0156L18.8814 16.0137C18.8508 15.8751 18.8566 15.6592 18.9248 15.4211C18.9933 15.1815 19.1027 14.9976 19.2003 14.9L21.6785 12.4218L21.6795 12.4208C22.5077 11.5978 22.9706 10.5811 22.6552 9.60014C22.3403 8.62044 21.3726 8.06141 20.2233 7.86985L17.0333 7.33985" fill="#9c8f80" /></g>
<g transform="translate(60,72) scale(0.6)" ><path d="M13.73 3.50965L15.49 7.02965C15.73 7.51965 16.37 7.98965 16.91 8.07965L20.1 8.60965C22.14 8.94965 22.62 10.4296 21.15 11.8896L18.67 14.3696C18.25 14.7896 18.02 15.5996 18.15 16.1796L18.86 19.2496C19.42 21.6796 18.13 22.6196 15.98 21.3496L12.99 19.5796C12.45 19.2596 11.56 19.2596 11.01 19.5796L8.02003 21.3496C5.88003 22.6196 4.58003 21.6696 5.14003 19.2496L5.85003 16.1796C5.98003 15.5996 5.75003 14.7896 5.33003 14.3696L2.85003 11.8896C1.39003 10.4296 1.86003 8.94965 3.90003 8.60965L7.09003 8.07965C7.62003 7.98965 8.26003 7.51965 8.50003 7.02965L10.26 3.50965C11.22 1.59965 12.78 1.59965 13.73 3.50965Z" stroke="#9c8f80" fill="none" stroke-width="1" stroke-linecap="round" stroke-linejoin="round" /></g>
<g transform="translate(32,56) scale(0.6)" ><path d="M13.73 3.50965L15.49 7.02965C15.73 7.51965 16.37 7.98965 16.91 8.07965L20.1 8.60965C22.14 8.94965 22.62 10.4296 21.15 11.8896L18.67 14.3696C18.25 14.7896 18.02 15.5996 18.15 16.1796L18.86 19.2496C19.42 21.6796 18.13 22.6196 15.98 21.3496L12.99 19.5796C12.45 19.2596 11.56 19.2596 11.01 19.5796L8.02003 21.3496C5.88003 22.6196 4.58003 21.6696 5.14003 19.2496L5.85003 16.1796C5.98003 15.5996 5.75003 14.7896 5.33003 14.3696L2.85003 11.8896C1.39003 10.4296 1.86003 8.94965 3.90003 8.60965L7.09003 8.07965C7.62003 7.98965 8.26003 7.51965 8.50003 7.02965L10.26 3.50965C11.22 1.59965 12.78 1.59965 13.73 3.50965Z" stroke="#9c8f80" fill="none" stroke-width="1" stroke-linecap="round" stroke-linejoin="round" /></g>
<g transform="translate(32,24) scale(0.6)" ><path d="M13.73 3.50965L15.49 7.02965C15.73 7.51965 16.37 7.98965 16.91 8.07965L20.1 8.60965C22.14 8.94965 22.62 10.4296 21.15 11.8896L18.67 14.3696C18.25 14.7896 18.02 15.5996 18.15 16.1796L18.86 19.2496C19.42 21.6796 18.13 22.6196 15.98 21.3496L12.99 19.5796C12.45 19.2596 11.56 19.2596 11.01 19.5796L8.02003 21.3496C5.88003 22.6196 4.58003 21.6696 5.14003 19.2496L5.85003 16.1796C5.98003 15.5996 5.75003 14.7896 5.33003 14.3696L2.85003 11.8896C1.39003 10.4296 1.86003 8.94965 3.90003 8.60965L7.09003 8.07965C7.62003 7.98965 8.26003 7.51965 8.50003 7.02965L10.26 3.50965C11.22 1.59965 12.78 1.59965 13.73 3.50965Z" stroke="#9c8f80" fill="none" stroke-width="1" stroke-linecap="round" stroke-linejoin="round" /></g>
</g>
      <text x="67.5" y="110" transform="translate(0, 35)" font-size="15" text-anchor="middle" fill="#5f574f" font-family="Calibri">
        Gold
      </text>
      <g transform="translate(0, 35)">
    <text x="160" y="30" fill="#5f574f" font-family="Calibri">
      <tspan font-size="11">Rank </tspan><tspan font-size="9">#</tspan><tspan font-size="15" font-weight="bold">3211</tspan>
    </text>
    <text x="160" y="50" font-size="11" fill="#5f574f" font-family="Calibri">
      Gold Tier: <tspan font-size="10">#</tspan>2501–5000
    </text>
    <rect x="160" y="65" width="160" height="8" fill="#9c8f80" rx="4" opacity="0.1"/>
    <rect x="160" y="65" width="88.56885688568858" height="8" fill="#9c8f80" rx="4"/>
    <text x="320" y="95" font-size="11" text-anchor="end" fill="#5f574f" font-family="Calibri">
      20.5/37.0 hrs
    </text></g>
    </g>
</svg>