
<svg width="433" height="308.5" xmlns="http://www.w3.org/2000/svg" style="font-family:Calibri,sans-serif;">
  <rect
    x="1"
    y="1"
    width="431"
    height="306.5"
    fill="#f8f6f3"
    stroke="#dcd7ce"
    stroke-width="2"
    rx="10"
    ry="10"
  />
  
    <g transform="translate(20, 20) scale(0.8041428571428572)">
      <g transform="scale(0.075)" style="color:#7a7266"><path fill="currentColor" d="M128 0C57.308 0 0 57.308 0 128c0 70.693 57.308 128 128 128 70.693 0 128-57.307 128-128C256 57.308 198.693 0 128 0m0 33.805c51.939 0 94.195 42.256 94.195 94.195 0 51.94-42.256 94.195-94.195 94.195-51.939 0-94.195-42.255-94.195-94.195 0-51.939 42.256-94.195 94.195-94.195m-12.5 121.838h-.113a6.342 6.342 0 0 1-4.953-2.528L81.56 114.732a6.34 6.34 0 0 1 10.131-7.62l23.993 31.893 6.863-8.478a6.34 6.34 0 0 1 4.926-2.35h.008a6.331 6.331 0 0 1 4.93 2.364l6.59 8.187 37.692-48.594a6.338 6.338 0 0 1 10.015 7.77L144.1 152.837a6.338 6.338 0 0 1-4.95 2.453h-.057a6.335 6.335 0 0 1-4.938-2.364l-6.697-8.319-7.033 8.686a6.336 6.336 0 0 1-4.926 2.35"/></g>
      <text x="30" y="15" fill="#2d2a26" font-size="16" font-family="Calibri">
        weekly_langs_bar WakaTime Stats
      </text>
    </g>
  <g transform="translate(0, 56) scale(1)">
      <text x="212.5" y="22.5" font-size="12" text-anchor="middle" fill="#5f574f" font-weight="bold">This week, I mostly wrote in JavaScript</text>
      <line x1="70" y1="106.5" x2="371" y2="106.5" stroke="#5f574f" stroke-width="0.5" stroke-dasharray="2,2"/>
<line x1="70" y1="91.5" x2="371" y2="91.5" stroke="#5f574f" stroke-width="0.5" stroke-dasharray="2,2"/>
<line x1="70" y1="76.5" x2="371" y2="76.5" stroke="#5f574f" stroke-width="0.5" stroke-dasharray="2,2"/>
<line x1="70" y1="61.5" x2="371" y2="61.5" stroke="#5f574f" stroke-width="0.5" stroke-dasharray="2,2"/>
<line x1="70" y1="46.5" x2="371" y2="46.5" stroke="#5f574f" stroke-width="0.5" stroke-dasharray="2,2"/>
<text x="62" y="109.5" font-size="9" text-anchor="end" fill="#5f574f">00:00</text>
<text x="62" y="94.5" font-size="9" text-anchor="end" fill="#5f574f">01:15</text>
<text x="62" y="79.5" font-size="9" text-anchor="end" fill="#5f574f">02:31</text>
<text x="62" y="64.5" font-size="9" text-anchor="end" fill="#5f574f">03:47</text>
<text x="62" y="49.5" font-size="9" text-anchor="end" fill="#5f574f">05:02</text>
<text x="25" y="76.5" font-size="10" fill-opacity="1" text-anchor="middle" transform="rotate(-90, 25, 76.5)" fill="#5f574f">Time</text>

                <rect x="70" y="87.38806192689376" width="30" height="19.111938073106245" fill="#b4ab7f" rx="2" ry="2">
                <title>TypeScript: 01:36</title>
                </rect>
            

                <rect x="70" y="86.78754630798261" width="30" height="0.6005156189111452" fill="#8c7975" rx="2" ry="2">
                <title>Python: 03m</title>
                </rect>
            
<text x="85" y="118.5" font-weight="bold" font-size="10" text-anchor="middle" fill="#5f574f">Tue</text>

                <rect x="115" y="76.03561978451536" width="30" height="30.46438021548464" fill="#b4ab7f" rx="2" ry="2">
                <title>TypeScript: 02:33</title>
                </rect>
            

                <rect x="115" y="74.74370616666059" width="30" height="1.2919136178547779" fill="#8c7975" rx="2" ry="2">
                <title>Python: 06m</title>
                </rect>
            

                <rect x="115" y="59.751668182017376" width="30" height="14.992037984643213" fill="#b86ca7" rx="2" ry="2">
                <title>JavaScript: 01:15</title>
                </rect>
            

                <rect x="115" y="59.63915246702849" width="30" height="0.1125157149888846" fill="#6f89a1" rx="2" ry="2">
                <title>JSON: 00m</title>
                </rect>
            
<text x="130" y="118.5" font-weight="bold" font-size="10" text-anchor="middle" fill="#5f574f">Wed</text>

                <rect x="160" y="104.5694778688884" width="30" height="1.9305221311115968" fill="#8c7975" rx="2" ry="2">
                <title>Python: 09m</title>
                </rect>
            

                <rect x="160" y="49.165693999716" width="30" height="55.4037838691724" fill="#b86ca7" rx="2" ry="2">
                <title>JavaScript: 04:39</title>
                </rect>
            

                <rect x="160" y="46.67344290062336" width="30" height="2.492251099092638" fill="#6f89a1" rx="2" ry="2">
                <title>JSON: 12m</title>
                </rect>
            

                <rect x="160" y="46.53587058094051" width="30" height="0.13757231968284436" fill="#789b9a" rx="2" ry="2">
                <title>Bash: 00m</title>
                </rect>
            

                <rect x="160" y="46.49999999999997" width="30" height="0.0358705809405368" fill="#95999d" rx="2" ry="2">
                <title>Other: 00m</title>
                </rect>
            
<text x="175" y="118.5" font-weight="bold" font-size="10" text-anchor="middle" fill="#5f574f">Thu</text>

                <rect x="205" y="95.78341613359075" width="30" height="10.716583866409255" fill="#b4ab7f" rx="2" ry="2">
                <title>TypeScript: 54m</title>
                </rect>
            

                <rect x="205" y="77.40558207149634" width="30" height="18.377834062094404" fill="#b86ca7" rx="2" ry="2">
                <title>JavaScript: 01:32</title>
                </rect>
            

                <rect x="205" y="71.12321926758047" width="30" height="6.282362803915875" fill="#6faa58" rx="2" ry="2">
                <title>Markdown: 31m</title>
                </rect>
            
<text x="220" y="118.5" font-weight="bold" font-size="10" text-anchor="middle" fill="#5f574f">Fri</text>

                <rect x="250" y="83.29046526034179" width="30" height="23.209534739658217" fill="#b86ca7" rx="2" ry="2">
                <title>JavaScript: 01:57</title>
                </rect>
            

                <rect x="250" y="83.21135027241311" width="30" height="0.07911498792867759" fill="#6f89a1" rx="2" ry="2">
                <title>JSON: 00m</title>
                </rect>
            

                <rect x="250" y="80.47973629104331" width="30" height="2.7316139813698017" fill="#6faa58" rx="2" ry="2">
                <title>Markdown: 13m</title>
                </rect>
            

                <rect x="250" y="66.59630041266216" width="30" height="13.883435878381155" fill="#ac9384" rx="2" ry="2">
                <title>CSS: 01:10</title>
                </rect>
            

                <rect x="250" y="65.7251619815687" width="30" height="0.8711384310934546" fill="#9d836a" rx="2" ry="2">
                <title>HTML: 04m</title>
                </rect>
            
<text x="265" y="118.5" font-weight="bold" font-size="10" text-anchor="middle" fill="#5f574f">Sat</text>

                <rect x="295" y="81.29500096283296" width="30" height="25.20499903716704" fill="#b86ca7" rx="2" ry="2">
                <title>JavaScript: 02:07</title>
                </rect>
            

                <rect x="295" y="80.61271440096958" width="30" height="0.6822865618633807" fill="#6f89a1" rx="2" ry="2">
                <title>JSON: 03m</title>
                </rect>
            

                <rect x="295" y="79.38125369778871" width="30" height="1.231460703180877" fill="#6faa58" rx="2" ry="2">
                <title>Markdown: 06m</title>
                </rect>
            

                <rect x="295" y="72.95816807976449" width="30" height="6.423085618024214" fill="#ac9384" rx="2" ry="2">
                <title>CSS: 32m</title>
                </rect>
            
<text x="310" y="118.5" font-weight="bold" font-size="10" text-anchor="middle" fill="#5f574f">Sun</text>

                <rect x="340" y="98.96941244789852" width="30" height="7.530587552101483" fill="#b86ca7" rx="2" ry="2">
                <title>JavaScript: 38m</title>
                </rect>
            

                <rect x="340" y="98.88592179142945" width="30" height="0.08349065646906839" fill="#6f89a1" rx="2" ry="2">
                <title>JSON: 00m</title>
                </rect>
            
<text x="355" y="118.5" font-weight="bold" font-size="10" text-anchor="middle" fill="#5f574f">Mon</text>

            <circle cx="109.5" cy="150.5" r="5" fill="#b4ab7f" />
            <text x="121.5" y="154.5" font-size="10" fill="#5f574f">TypeScript</text>
            

            <circle cx="206.5" cy="150.5" r="5" fill="#8c7975" />
            <text x="218.5" y="154.5" font-size="10" fill="#5f574f">Python</text>
            

            <circle cx="303.5" cy="150.5" r="5" fill="#b86ca7" />
            <text x="315.5" y="154.5" font-size="10" fill="#5f574f">JavaScript</text>
            

            <circle cx="109.5" cy="170.5" r="5" fill="#6f89a1" />
            <text x="121.5" y="174.5" font-size="10" fill="#5f574f">JSON</text>
            

            <circle cx="206.5" cy="170.5" r="5" fill="#789b9a" />
            <text x="218.5" y="174.5" font-size="10" fill="#5f574f">Bash</text>
            

            <circle cx="303.5" cy="170.5" r="5" fill="#95999d" />
            <text x="315.5" y="174.5" font-size="10" fill="#5f574f">Other</text>
            

            <circle cx="109.5" cy="190.5" r="5" fill="#6faa58" />
            <text x="121.5" y="194.5" font-size="10" fill="#5f574f">Markdown</text>
            

            <circle cx="206.5" cy="190.5" r="5" fill="#ac9384" />
            <text x="218.5" y="194.5" font-size="10" fill="#5f574f">CSS</text>
            

            <circle cx="303.5" cy="190.5" r="5" fill="#9d836a" />
            <text x="315.5" y="194.5" font-size="10" fill="#5f574f">HTML</text>
            
      <text x="212.5" y="222.5" font-size="12" text-anchor="middle" fill="#5f574f"><tspan font-weight="bold">Total:</tspan> 20 hrs 30 mins</text>
    </g>
</svg>