
<svg width="433" height="288.5" xmlns="http://www.w3.org/2000/svg" style="font-family:Calibri,sans-serif;">
  <rect
    x="1"
    y="1"
    width="431"
    height="286.5"
    fill="#f8f6f3"
    stroke="#dcd7ce"
    stroke-width="2"
    rx="10"
    ry="10"
  />
  
    <g transform="translate(20, 20) scale(0.8041428571428572)">
      <g transform="scale(0.075)" style="color:#7a7266"><path fill="currentColor" d="M128 0C57.308 0 0 57.308 0 128c0 70.693 57.308 128 128 128 70.693 0 128-57.307 128-128C256 57.308 198.693 0 128 0m0 33.805c51.939 0 94.195 42.256 94.195 94.195 0 51.94-42.256 94.195-94.195 94.195-51.939 0-94.195-42.255-94.195-94.195 0-51.939 42.256-94.195 94.195-94.195m-12.5 121.838h-.113a6.342 6.342 0 0 1-4.953-2.528L81.56 114.732a6.34 6.34 0 0 1 10.131-7.62l23.993 31.893 6.863-8.478a6.34 6.34 0 0 1 4.926-2.35h.008a6.331 6.331 0 0 1 4.93 2.364l6.59 8.187 37.692-48.594a6.338 6.338 0 0 1 10.015 7.77L144.1 152.837a6.338 6.338 0 0 1-4.95 2.453h-.057a6.335 6.335 0 0 1-4.938-2.364l-6.697-8.319-7.033 8.686a6.336 6.336 0 0 1-4.926 2.35"/></g>
      <text x="30" y="15" fill="#2d2a26" font-size="16" font-family="Calibri">
        weekly_projs_bar WakaTime Stats
      </text>
    </g>
  <g transform="translate(0, 56) scale(1)">
      <text x="212.5" y="22.5" font-size="12" text-anchor="middle" fill="#5f574f" font-weight="bold">This week, I mostly worked on wakatimeReadmeStats</text>
      <line x1="70" y1="106.5" x2="371" y2="106.5" stroke="#5f574f" stroke-width="0.5" stroke-dasharray="2,2"/>
<line x1="70" y1="91.5" x2="371" y2="91.5" stroke="#5f574f" stroke-width="0.5" stroke-dasharray="2,2"/>
<line x1="70" y1="76.5" x2="371" y2="76.5" stroke="#5f574f" stroke-width="0.5" stroke-dasharray="2,2"/>
<line x1="70" y1="61.5" x2="371" y2="61.5" stroke="#5f574f" stroke-width="0.5" stroke-dasharray="2,2"/>
<line x1="70" y1="46.5" x2="371" y2="46.5" stroke="#5f574f" stroke-width="0.5" stroke-dasharray="2,2"/>
<text x="62" y="109.5" font-size="9" text-anchor="end" fill="#5f574f">00:00</text>
<text x="62" y="94.5" font-size="9" text-anchor="end" fill="#5f574f">01:15</text>
<text x="62" y="79.5" font-size="9" text-anchor="end" fill="#5f574f">02:31</text>
<text x="62" y="64.5" font-size="9" text-anchor="end" fill="#5f574f">03:47</text>
<text x="62" y="49.5" font-size="9" text-anchor="end" fill="#5f574f">05:02</text>
<text x="25" y="76.5" font-size="10" fill-opacity="1" text-anchor="middle" transform="rotate(-90, 25, 76.5)" fill="#5f574f">Time</text>

                <rect x="70" y="86.78754630798261" width="30" height="19.712453692017384" fill="#71a05f" rx="2" ry="2">
                <title>nutriverse_v2: 01:39</title>
                </rect>
            
<text x="85" y="118.5" font-weight="bold" font-size="10" text-anchor="middle" fill="#5f574f">Tue</text>

                <rect x="115" y="74.7106180385362" width="30" height="31.7893819614638" fill="#71a05f" rx="2" ry="2">
                <title>nutriverse_v2: 02:40</title>
                </rect>
            

                <rect x="115" y="59.63915246702849" width="30" height="15.071465571507709" fill="#78748a" rx="2" ry="2">
                <title>wakatimeReadmeStats: 01:16</title>
                </rect>
            
<text x="130" y="118.5" font-weight="bold" font-size="10" text-anchor="middle" fill="#5f574f">Wed</text>

                <rect x="160" y="46.5" width="30" height="60" fill="#78748a" rx="2" ry="2">
                <title>wakatimeReadmeStats: 05:02</title>
                </rect>
            
<text x="175" y="118.5" font-weight="bold" font-size="10" text-anchor="middle" fill="#5f574f">Thu</text>

                <rect x="205" y="95.78341613359075" width="30" height="10.716583866409254" fill="#71a05f" rx="2" ry="2">
                <title>nutriverse_v2: 54m</title>
                </rect>
            

                <rect x="205" y="71.12321926758048" width="30" height="24.660196866010274" fill="#78748a" rx="2" ry="2">
                <title>wakatimeReadmeStats: 02:04</title>
                </rect>
            
<text x="220" y="118.5" font-weight="bold" font-size="10" text-anchor="middle" fill="#5f574f">Fri</text>

                <rect x="250" y="98.47233291626313" width="30" height="8.027667083736866" fill="#78748a" rx="2" ry="2">
                <title>wakatimeReadmeStats: 40m</title>
                </rect>
            

                <rect x="250" y="65.72516198156869" width="30" height="32.74717093469444" fill="#c06288" rx="2" ry="2">
                <title>dadsBdayWebApp: 02:45</title>
                </rect>
            
<text x="265" y="118.5" font-weight="bold" font-size="10" text-anchor="middle" fill="#5f574f">Sat</text>

                <rect x="295" y="102.38295040463234" width="30" height="4.1170495953676625" fill="#78748a" rx="2" ry="2">
                <title>wakatimeReadmeStats: 20m</title>
                </rect>
            

                <rect x="295" y="73.6077347367297" width="30" height="28.775215667902646" fill="#c06288" rx="2" ry="2">
                <title>dadsBdayWebApp: 02:25</title>
                </rect>
            

                <rect x="295" y="72.9581680797645" width="30" height="0.6495666569651968" fill="#b2ae7c" rx="2" ry="2">
                <title>Unknown Project: 03m</title>
                </rect>
            
<text x="310" y="118.5" font-weight="bold" font-size="10" text-anchor="middle" fill="#5f574f">Sun</text>

                <rect x="340" y="98.88592179142945" width="30" height="7.614078208570552" fill="#78748a" rx="2" ry="2">
                <title>wakatimeReadmeStats: 38m</title>
                </rect>
            
<text x="355" y="118.5" font-weight="bold" font-size="10" text-anchor="middle" fill="#5f574f">Mon</text>

            <circle cx="99.5" cy="150.5" r="5" fill="#71a05f" />
            <text x="111.5" y="154.5" font-size="10" fill="#5f574f">nutriverse_v2</text>
            

            <circle cx="255" cy="150.5" r="5" fill="#78748a" />
            <text x="267" y="154.5" font-size="10" fill="#5f574f">wakatimeReadmeStats</text>
            

            <circle cx="99.5" cy="170.5" r="5" fill="#c06288" />
            <text x="111.5" y="174.5" font-size="10" fill="#5f574f">dadsBdayWebApp</text>
            

            <circle cx="255" cy="170.5" r="5" fill="#b2ae7c" />
            <text x="267" y="174.5" font-size="10" fill="#5f574f">Unknown Project</text>
            
      <text x="212.5" y="202.5" font-size="12" text-anchor="middle" fill="#5f574f"><tspan font-weight="bold">Total:</tspan> 20 hrs 30 mins</text>
    </g>
</svg>